<svg width="297" height="294" viewBox="0 0 297 294" fill="none" xmlns="http://www.w3.org/2000/svg">
<path d="M164.454 76.4815C161.021 63.2416 151.327 51.0672 138.872 45.2627C129.228 40.7684 117.947 39.8867 107.72 42.828C99.8468 45.0925 92.4646 49.7386 88.0132 56.6098C80.0622 68.8826 86.4137 82.294 90.1272 94.8271C92.2804 102.094 93.4042 110.165 90.2831 117.073C83.7592 131.512 64.7829 134.253 55.4858 146.338C43.4626 161.967 33.7116 183.163 49.5833 200.218C64.4894 216.235 87.3256 210.883 101.842 197.632C112.938 187.502 128.609 180.276 143.886 182.715C158.842 185.103 170.126 196.315 181.813 204.976C198.52 217.355 223.029 212.306 236.471 197.457C250.433 182.034 252.055 149.709 234.642 136.044C227.243 130.237 218.336 129.434 209.426 127.903C196.935 125.755 176.356 120.925 169.828 108.773C164.593 99.0262 167.139 87.4854 164.605 77.0844C164.556 76.8832 164.506 76.6824 164.454 76.4815Z" fill="#EEB8CF"/>
<path d="M175.806 68.4964C175.806 67.0006 174.592 65.7883 173.095 65.7883C171.598 65.7883 170.384 67.0006 170.384 68.4964C170.384 69.9921 171.598 71.2045 173.095 71.2045C174.592 71.2045 175.806 69.9921 175.806 68.4964Z" fill="#EEB8CF"/>
<path d="M70.2685 81.4025C70.2685 78.3372 67.7813 75.8525 64.7129 75.8525C61.6444 75.8525 59.1572 78.3372 59.1572 81.4025C59.1572 84.4679 61.6444 86.9525 64.7129 86.9525C67.7813 86.9525 70.2685 84.4679 70.2685 81.4025Z" fill="#EEB8CF"/>
<path d="M219.405 114.148C219.405 111.46 217.224 109.281 214.533 109.281C211.842 109.281 209.661 111.46 209.661 114.148C209.661 116.836 211.842 119.015 214.533 119.015C217.224 119.015 219.405 116.836 219.405 114.148Z" fill="#EEB8CF"/>
<path d="M115.848 56.2643C115.848 54.7689 114.635 53.5562 113.137 53.5562C111.64 53.5562 110.427 54.7689 110.427 56.2643C110.427 57.7601 111.64 58.9724 113.137 58.9724C114.635 58.9724 115.848 57.7601 115.848 56.2643Z" fill="#FDE6F0"/>
<path d="M157.867 91.9457C157.867 90.8116 156.947 89.8925 155.811 89.8925C154.676 89.8925 153.756 90.8116 153.756 91.9457C153.756 93.0795 154.676 93.999 155.811 93.999C156.947 93.999 157.867 93.0795 157.867 91.9457Z" fill="#FDE6F0"/>
<path d="M103.364 101.067C103.364 99.9332 102.444 99.0141 101.309 99.0141C100.173 99.0141 99.2534 99.9332 99.2534 101.067C99.2534 102.201 100.173 103.121 101.309 103.121C102.444 103.121 103.364 102.201 103.364 101.067Z" fill="#FDE6F0"/>
<mask id="mask0_7016_4542" style="mask-type:alpha" maskUnits="userSpaceOnUse" x="0" y="18" width="291" height="249">
<path d="M290.147 18.8741V266.933H0V18.8741H290.147Z" fill="black"/>
</mask>
<g mask="url(#mask0_7016_4542)">
<path d="M272.778 97.9382H324.031C323.957 94.9009 324.343 92.1436 321.592 90.2015C319.433 88.6775 316.452 88.1611 314.883 90.6057C312.628 87.5005 311.764 83.4332 308.243 81.0968C304.2 78.4147 298.393 79.111 295.739 83.2434C294.621 82.1949 294.068 80.509 292.778 79.5269C290.338 77.6678 286.697 78.4801 284.363 80.3082C281.167 82.8117 281.345 87.7223 281.187 91.396C277.09 87.728 272.02 92.392 272.778 97.9382Z" fill="#C05D86"/>
<path d="M111.952 118.506H163.206C163.132 115.469 163.517 112.711 160.766 110.769C158.607 109.245 155.626 108.729 154.057 111.173C151.803 108.068 150.939 104.001 147.417 101.665C143.375 98.9824 137.568 99.6787 134.914 103.811C133.795 102.763 133.243 101.077 131.953 100.095C129.512 98.2355 125.871 99.0478 123.537 100.876C120.342 103.379 120.52 108.29 120.361 111.964C116.265 108.296 111.194 112.96 111.952 118.506Z" fill="#C05D86"/>
<path d="M-43.0098 97.9382H8.24396C8.17007 94.9009 8.55536 92.1436 5.80436 90.2015C3.64547 88.6775 0.664387 88.1611 -0.90443 90.6057C-3.15914 87.5005 -4.02317 83.4332 -7.54473 81.0968C-11.5872 78.4147 -17.3939 79.111 -20.0484 83.2434C-21.1668 82.1949 -21.7194 80.509 -23.0089 79.5269C-25.4495 77.6678 -29.0908 78.4801 -31.4245 80.3082C-34.6201 82.8117 -34.442 87.7223 -34.6006 91.396C-38.697 87.728 -43.7679 92.392 -43.0098 97.9382Z" fill="#C05D86"/>
</g>
<mask id="mask1_7016_4542" style="mask-type:alpha" maskUnits="userSpaceOnUse" x="0" y="18" width="291" height="249">
<path d="M290.147 18.8741V266.933H0V18.8741H290.147Z" fill="black"/>
</mask>
<g mask="url(#mask1_7016_4542)">
<path d="M215.858 209.937H202.847C203.788 209.42 204.434 208.431 204.434 207.282V184.774C204.434 183.094 203.07 181.731 201.388 181.731H185.024C183.342 181.731 181.978 180.369 181.978 178.689V160.932C181.978 159.251 180.615 157.889 178.933 157.889H170.817C169.135 157.889 167.771 159.251 167.771 160.932V168.333C167.771 170.014 166.408 171.376 164.725 171.376H149.699C148.016 171.376 146.653 172.738 146.653 174.418V207.282C146.653 208.431 147.298 209.42 148.24 209.937H145.064C146.005 209.42 146.651 208.431 146.651 207.282V190.25C146.651 188.57 145.287 187.208 143.605 187.208H130.407C128.725 187.208 127.361 185.845 127.361 184.165V166.264C127.361 164.584 125.998 163.221 124.315 163.221H107.365C105.683 163.221 104.32 164.584 104.32 166.264V172.603C104.32 174.284 102.956 175.646 101.274 175.646H97.9846C96.3025 175.646 94.9388 177.008 94.9388 178.689C94.9388 180.369 93.5751 181.731 91.8929 181.731H75.529C73.8468 181.731 72.4831 180.369 72.4831 178.689V160.932C72.4831 159.251 71.1194 157.889 69.4373 157.889H61.3219C59.6397 157.889 58.2761 159.251 58.2761 160.932V168.333C58.2761 170.014 56.9127 171.376 55.2305 171.376H40.2033C38.5211 171.376 37.1574 172.738 37.1574 174.418V207.282C37.1574 208.431 37.8032 209.42 38.7448 209.937H35.5684C36.51 209.42 37.1557 208.431 37.1557 207.282V190.25C37.1557 188.57 35.792 187.208 34.1099 187.208H20.9119C19.2297 187.208 17.8661 185.845 17.8661 184.165V166.264C17.8661 164.584 16.5024 163.221 14.8202 163.221H-2.12977C-3.81195 163.221 -5.17564 164.584 -5.17564 166.264V172.603C-5.17564 174.284 -6.53932 175.646 -8.22149 175.646H-11.5106C-13.1928 175.646 -14.5565 177.008 -14.5565 178.689V207.282C-14.5565 208.431 -13.9104 209.42 -12.9688 209.937H-24.3047C-24.6775 209.937 -24.9795 210.239 -24.9795 210.611C-24.9795 210.984 -24.6775 211.286 -24.3047 211.286H215.858C216.231 211.286 216.533 210.984 216.533 210.611C216.533 210.239 216.231 209.937 215.858 209.937Z" fill="#C05D86"/>
<path d="M484.075 209.937H471.064C472.005 209.42 472.651 208.431 472.651 207.282V184.774C472.651 183.094 471.287 181.731 469.605 181.731H453.241C451.559 181.731 450.195 180.369 450.195 178.689V160.932C450.195 159.251 448.832 157.889 447.15 157.889H439.034C437.352 157.889 435.988 159.251 435.988 160.932V168.333C435.988 170.014 434.625 171.376 432.942 171.376H417.916C416.233 171.376 414.87 172.738 414.87 174.418V207.282C414.87 208.431 415.515 209.42 416.457 209.937H413.281C414.222 209.42 414.868 208.431 414.868 207.282V190.25C414.868 188.57 413.504 187.208 411.822 187.208H398.624C396.942 187.208 395.578 185.845 395.578 184.165V166.264C395.578 164.584 394.215 163.221 392.532 163.221H375.583C373.9 163.221 372.537 164.584 372.537 166.264V172.603C372.537 174.284 371.173 175.646 369.491 175.646H366.202C364.52 175.646 363.156 177.008 363.156 178.689C363.156 180.369 361.792 181.731 360.11 181.731H343.746C342.064 181.731 340.7 180.369 340.7 178.689V160.932C340.7 159.251 339.336 157.889 337.654 157.889H329.539C327.857 157.889 326.493 159.251 326.493 160.932V168.333C326.493 170.014 325.13 171.376 323.448 171.376H308.42C306.738 171.376 305.374 172.738 305.374 174.418V207.282C305.374 208.431 306.02 209.42 306.962 209.937H303.785C304.727 209.42 305.373 208.431 305.373 207.282V190.25C305.373 188.57 304.009 187.208 302.327 187.208H289.129C287.447 187.208 286.083 185.845 286.083 184.165V166.264C286.083 164.584 284.719 163.221 283.037 163.221H266.087C264.405 163.221 263.041 164.584 263.041 166.264V172.603C263.041 174.284 261.678 175.646 259.996 175.646H256.706C255.024 175.646 253.661 177.008 253.661 178.689V207.282C253.661 208.431 254.307 209.42 255.248 209.937H243.912C243.54 209.937 243.238 210.239 243.238 210.611C243.238 210.984 243.54 211.286 243.912 211.286H484.075C484.448 211.286 484.75 210.984 484.75 210.611C484.75 210.239 484.448 209.937 484.075 209.937Z" fill="#C05D86"/>
</g>
<mask id="mask2_7016_4542" style="mask-type:alpha" maskUnits="userSpaceOnUse" x="0" y="0" width="297" height="293">
<path d="M296.894 0V292.548H0V0H296.894Z" fill="black"/>
</mask>
<g mask="url(#mask2_7016_4542)">
<path d="M185.465 268.013C185.465 269.667 147.093 271.007 99.7588 271.007C52.4244 271.007 14.0525 269.667 14.0525 268.013C14.0525 266.36 52.4244 265.02 99.7588 265.02C147.093 265.02 185.465 266.36 185.465 268.013Z" fill="#CDB1BC"/>
<path d="M403.75 268.013C403.75 269.667 365.378 271.007 318.043 271.007C270.709 271.007 232.337 269.667 232.337 268.013C232.337 266.36 270.709 265.02 318.043 265.02C365.378 265.02 403.75 266.36 403.75 268.013Z" fill="#CDB1BC"/>
</g>
<path d="M72.6325 221.394C85.1347 219.217 97.0599 227.595 99.2454 240.09C101.431 252.585 93.0545 264.499 80.5523 266.676C68.0501 268.853 56.1248 260.476 53.9394 247.98C51.7539 235.485 60.1303 223.572 72.6325 221.394Z" fill="#612D43"/>
<path d="M73.9392 228.866C82.3157 227.407 90.3056 233.02 91.7699 241.392C93.2341 249.764 87.6219 257.746 79.2455 259.204C70.869 260.663 62.8791 255.05 61.4148 246.678C59.9506 238.306 65.5628 230.325 73.9392 228.866Z" fill="#FDE6F0"/>
<path d="M75.4043 237.243C79.155 236.59 82.7325 239.103 83.3882 242.852C84.0438 246.6 81.5309 250.174 77.7802 250.827C74.0296 251.481 70.452 248.967 69.7964 245.219C69.1407 241.47 71.6536 237.896 75.4043 237.243Z" fill="#612D43"/>
<g opacity="0.6">
<path d="M82.3559 260.771C73.1151 263.944 63.0297 259.02 59.8489 249.783C56.668 240.547 61.5881 230.472 70.8289 227.299C80.0696 224.127 90.155 229.05 93.3359 238.287C96.5167 247.524 91.5966 257.599 82.3559 260.771Z" stroke="white" stroke-opacity="0.95" stroke-width="3.8885" stroke-linecap="round" stroke-linejoin="round" stroke-dasharray="28.77 28.77"/>
</g>
<path d="M200.494 221.501C212.996 219.324 224.922 227.701 227.107 240.197C229.292 252.692 220.916 264.605 208.414 266.783C195.912 268.96 183.986 260.582 181.801 248.087C179.615 235.592 187.992 223.679 200.494 221.501Z" fill="#612D43"/>
<path d="M201.801 228.973C210.177 227.514 218.167 233.127 219.631 241.499C221.096 249.871 215.484 257.852 207.107 259.311C198.731 260.77 190.741 255.157 189.276 246.785C187.812 238.413 193.424 230.431 201.801 228.973Z" fill="#FDE6F0"/>
<path d="M203.266 237.35C207.017 236.697 210.594 239.21 211.25 242.958C211.905 246.707 209.392 250.281 205.642 250.934C201.891 251.587 198.314 249.074 197.658 245.325C197.002 241.577 199.515 238.003 203.266 237.35Z" fill="#612D43"/>
<g opacity="0.6">
<path d="M210.217 260.878C200.977 264.05 190.891 259.127 187.71 249.89C184.53 240.653 189.45 230.578 198.69 227.406C207.931 224.234 218.017 229.157 221.197 238.394C224.378 247.63 219.458 257.706 210.217 260.878Z" stroke="white" stroke-width="3.8885" stroke-linecap="round" stroke-linejoin="round" stroke-dasharray="28.77 28.77"/>
</g>
<path d="M157.822 218.419L159.642 225.785L158.078 228.622C157.409 229.844 156.169 230.505 154.908 230.525C154.006 230.54 153.098 230.235 152.369 229.569L150.478 227.855L149.609 223.963L149.609 223.953L150.733 220.339L157.822 218.419Z" fill="#F664A1"/>
<path d="M161.421 225.368C160.822 224.952 159.991 225.14 159.642 225.785L158.079 228.622C157.41 229.845 156.169 230.505 154.908 230.526C154.006 230.541 153.099 230.236 152.37 229.569L150.478 227.855L149.513 226.979L147.914 232.395L147.914 232.405L154.956 232.222L158.767 232.13C161.337 232.068 163.653 230.673 164.927 228.51C165.021 228.353 165.106 228.206 165.201 228.05L161.421 225.368Z" fill="#743D54"/>
<path d="M159.511 192.027L161.918 217.305L157.823 218.42L150.733 220.339L159.511 192.027Z" fill="#71314C"/>
<path d="M158.303 179.321L158.527 181.722C156.717 179.057 153.708 177.197 150.135 177.061L116.879 176.236L118.554 174.158C119.077 173.548 120.666 173.416 121.47 173.364L148.717 171.724L149.377 171.684C153.923 171.415 157.869 174.792 158.303 179.321Z" fill="#71314C"/>
<path d="M190.531 199.029C189.899 198.879 189.353 198.496 188.98 197.975C185.321 192.779 182.637 186.956 181.065 180.804L177.463 166.729C176.085 165.403 175.227 163.558 175.211 161.513C175.198 159.904 175.701 158.427 176.575 157.209C176.575 157.209 169.204 157.557 166.996 161.77C165.604 163.704 165.536 166.152 166.752 167.785C167.684 169.036 169.691 170.239 171.488 169.433C173.16 168.684 173.526 166.699 173.561 166.488L182.563 193.731L182.698 194.951C183.576 202.931 182.862 211.019 180.594 218.723L179.479 222.521L176.629 229.076L175.495 231.692C173.16 237.06 164.69 241.616 158.267 241.394L157.512 241.4C157.224 241.421 160.72 241.055 159.791 241.382L156.763 242.443C153.948 243.434 150.963 243.883 147.974 243.781C147.615 243.764 147.266 243.747 146.906 243.711L130.85 242.42C129.899 242.34 130.447 242.86 130.024 242.058L129.774 242.651L129.69 242.651C129.473 242.245 129.534 242.033 129.559 241.548C129.829 236.273 130.925 231.726 130.925 231.726L134.041 234.418L134.363 231.401C132.739 230.88 129.396 229.712 127.896 228.871C122.205 225.678 119.191 219.905 119.146 214.042C119.13 211.987 119.473 209.92 120.205 207.966C121.079 205.605 122.497 203.393 124.491 201.507L134.228 192.283L109.93 192.994C109.93 192.994 107.478 193.265 104.877 193.091L76.7552 194.81C76.5903 194.822 76.4258 194.842 76.2708 194.863C73.8581 195.25 72.0407 197.348 72.0601 199.838C72.0601 199.838 66.31 201.491 59.7072 206.98C58.3865 208.085 57.0285 209.337 55.6715 210.762C53.6987 212.842 51.729 215.299 49.8984 218.173C46.7258 223.14 43.9608 229.374 42.2361 237.151L45.5235 231.931C52.5289 220.808 62.2072 211.613 73.683 205.186C78.1361 202.699 83.0837 201.42 88.0507 201.382C92.1929 201.35 96.3614 202.18 100.255 203.885C108.861 207.647 113.737 215.935 113.803 224.454C113.841 229.309 112.308 234.254 109.013 238.476L104.681 244.034L104.682 244.034L104.567 246.759L148.044 248.526L155.419 248.827C163.872 249.169 171.715 244.679 175.723 237.369C176.068 236.756 176.373 236.114 176.659 235.462L179.419 231.128C182.4 226.462 184.339 221.291 185.181 215.954C188.294 213.4 192.015 211.55 196.093 210.665L196.093 210.656C196.656 209.479 196.908 208.255 196.899 207.044C196.87 203.38 194.389 199.959 190.531 199.029Z" fill="#FF1476"/>
<path d="M182.698 194.951L182.563 193.731L173.562 166.488C173.474 166.102 173.112 164.723 171.781 163.702C170.337 162.594 168.766 162.685 168.4 162.716C167.943 162.913 167.621 163.164 167.393 163.398C166.208 164.614 166.142 166.82 167.062 169.039C169.201 173.319 171.339 177.6 173.478 181.88C179.674 193.927 178.69 208.405 170.937 219.514L166.908 225.292C166.342 226.101 165.844 226.958 165.336 227.815C165.24 227.971 165.154 228.116 165.059 228.272C163.766 230.424 161.438 231.799 158.868 231.839L155.055 231.897L148.013 232.019L140.755 231.907L145.17 233.807L160.064 238.517C160.96 238.878 160.831 239.536 160.838 240.046C160.844 240.549 160.385 240.913 160.385 240.991C160.153 241.102 160.154 241.186 159.789 241.297L161.136 241.392C166.324 240.17 173.16 237.059 175.495 231.69L176.629 229.075L179.479 222.52L180.594 218.722C182.862 211.019 183.576 202.93 182.698 194.951Z" fill="#D11D6A"/>
<path d="M113.803 224.453C113.841 229.309 112.308 234.254 109.013 238.476L104.681 244.034L104.566 246.759L100.015 246.571C100.049 246.047 100.064 245.514 100.06 244.981C99.9594 232.004 89.3521 221.57 76.3625 221.671C63.5959 221.769 53.2944 231.997 53.0437 244.666L48.2304 244.471C44.3598 244.501 41.4022 240.938 42.2361 237.151L45.5232 231.931C52.5285 220.808 62.2071 211.613 73.6826 205.186C78.1357 202.699 83.0833 201.42 88.0503 201.382C92.1929 201.35 96.361 202.18 100.255 203.885C108.86 207.647 113.737 215.935 113.803 224.453Z" fill="#D11D6A"/>
<path d="M76.3619 221.67C63.5952 221.769 53.2941 231.996 53.0434 244.666L61.1568 245.001L69.5414 245.333L83.5164 245.903L91.9109 246.246L100.014 246.571C100.049 246.047 100.064 245.514 100.06 244.981C99.9591 232.004 89.3515 221.57 76.3619 221.67Z" fill="#FF84B7"/>
<path d="M83.0387 240.168C83.0296 240.168 83.0208 240.168 83.0117 240.167L62.0262 239.183C61.7585 239.171 61.5516 238.943 61.5644 238.676C61.5765 238.408 61.8109 238.188 62.0716 238.215L83.0571 239.2C83.3248 239.212 83.5317 239.439 83.5189 239.706C83.5071 239.965 83.2944 240.166 83.0387 240.168Z" fill="white"/>
<path d="M84.9498 238.23C84.9407 238.23 84.9319 238.23 84.9228 238.229L63.9373 237.244C63.6697 237.232 63.4627 237.004 63.4755 236.737C63.4876 236.469 63.7191 236.252 63.9827 236.276L84.9683 237.261C85.2359 237.274 85.4425 237.501 85.43 237.768C85.4182 238.026 85.2055 238.228 84.9498 238.23Z" fill="white"/>
<path d="M86.8612 236.291C86.8521 236.291 86.8433 236.291 86.8342 236.29L65.8487 235.305C65.581 235.293 65.3741 235.065 65.3869 234.798C65.399 234.53 65.6277 234.316 65.8941 234.337L86.8796 235.322C87.1473 235.334 87.3542 235.562 87.3414 235.829C87.3296 236.087 87.1169 236.289 86.8612 236.291Z" fill="white"/>
<path d="M88.6575 234.467C88.649 234.467 88.6403 234.467 88.6308 234.466L67.645 233.482C67.3773 233.47 67.1708 233.243 67.1835 232.976C67.1956 232.708 67.4254 232.492 67.6907 232.514L88.6763 233.498C88.9436 233.511 89.1511 233.738 89.138 234.005C89.1259 234.264 88.9132 234.465 88.6575 234.467Z" fill="white"/>
<path d="M100.257 203.886C103.983 205.391 107.323 207.94 109.739 211.211C110.992 212.819 111.906 214.655 112.715 216.526C113.395 218.446 113.946 220.433 114.1 222.475C114.479 226.532 113.867 230.741 112.063 234.434C111.166 236.272 109.991 237.994 108.744 239.566L105.016 244.297L104.679 243.615C108.483 243.59 112.287 243.656 116.09 243.672C119.894 243.7 123.698 243.768 127.502 243.861C123.7 244.012 119.897 244.14 116.094 244.227C112.292 244.301 108.489 244.426 104.686 244.459C104.453 244.461 104.262 244.274 104.26 244.041C104.259 243.943 104.294 243.85 104.349 243.778L108.031 239.011C109.262 237.422 110.338 235.803 111.191 234.021C112.937 230.494 113.577 226.468 113.247 222.555C113.121 220.585 112.595 218.672 112.011 216.789C111.281 214.959 110.448 213.146 109.274 211.545C107.001 208.301 103.889 205.625 100.257 203.886Z" fill="#542A3C"/>
<path d="M134.228 192.283L124.491 201.507C122.497 203.393 121.078 205.605 120.204 207.967C109.733 204.965 104.877 193.091 104.877 193.091C107.478 193.265 109.931 192.994 109.931 192.994L134.228 192.283Z" fill="#D11D6A"/>
<path d="M201.473 210.059C199.629 210.074 197.827 210.282 196.093 210.654L196.093 210.663C192.016 211.548 188.295 213.399 185.181 215.952C184.34 221.289 182.401 226.461 179.42 231.126L176.66 235.46C176.373 236.112 176.068 236.754 175.724 237.367C175.828 239.489 176.183 241.531 176.77 243.475L180.805 242.048L189.755 238.887L212.123 230.97L221.073 227.8L225.726 226.155C221.8 216.638 212.406 209.975 201.473 210.059Z" fill="#FF84B7"/>
<path d="M187.931 154.117L188.045 168.702L184.426 168.73C184.91 162.243 184.303 154.145 184.303 154.145L187.931 154.117Z" fill="#FF84B7"/>
<path d="M177.464 166.729C176.086 165.403 175.228 163.558 175.212 161.513C175.199 159.905 175.702 158.427 176.576 157.209C176.796 156.898 177.037 156.605 177.306 156.331C178.625 155.003 180.442 154.175 182.45 154.159L184.303 154.145C184.303 154.145 184.91 162.243 184.426 168.73L182.564 168.745C180.595 168.76 178.794 167.989 177.464 166.729Z" fill="#D11D6A"/>
<path d="M169.434 165.538C170.478 165.53 171.332 166.37 171.34 167.412C171.348 168.455 170.507 169.308 169.464 169.316C168.42 169.324 167.566 168.484 167.558 167.442C167.55 166.399 168.391 165.546 169.434 165.538Z" fill="black"/>
<path d="M84.5626 158.958L52.2804 160.076L51.6797 142.822L83.9618 141.705L84.5626 158.958Z" fill="#FF006A"/>
<path d="M70.0665 151.36L66.2132 151.493L65.8943 142.331L69.7476 142.198L70.0665 151.36Z" fill="#A22459"/>
<path d="M82.3735 147.447L74.9821 147.703L74.876 144.655L82.2674 144.399L82.3735 147.447Z" fill="#FFCCE1"/>
<path d="M93.7334 191.212L93.8104 193.424L76.4832 194.967L75.738 195.146L65.1411 192.202L93.7334 191.212Z" fill="#393134"/>
<path d="M93.3294 179.631L93.7335 191.217L65.1438 192.205L49.7198 192.738L48.585 160.199L92.5986 158.677L93.3294 179.631Z" fill="#FF1476"/>
<path d="M90.1494 172.968L51.5328 174.305L51.4531 172.016L90.0697 170.679L90.1494 172.968Z" fill="#D11D6A"/>
<path d="M90.3841 179.715L51.7675 181.052L51.6877 178.762L90.3044 177.425L90.3841 179.715Z" fill="#D11D6A"/>
<path d="M90.6184 186.462L52.0018 187.799L51.9221 185.509L90.5387 184.172L90.6184 186.462Z" fill="#D11D6A"/>
<path d="M76.4318 166.293L64.1395 166.718C63.1567 166.752 62.3322 165.983 62.2979 165.001L62.1816 161.666L78.033 161.118L78.1493 164.453C78.1836 165.435 77.4146 166.259 76.4318 166.293Z" fill="#D11D6A"/>
<path d="M50.2957 162.079C53.5745 161.765 56.8567 161.558 60.1398 161.366C63.4224 161.164 66.7075 161.037 69.9928 160.911C73.279 160.808 76.5649 160.707 79.8537 160.681L84.7869 160.646C86.4324 160.67 88.0771 160.66 89.7237 160.713C88.0848 160.88 86.4434 160.984 84.8034 161.121L79.8796 161.428C76.5969 161.629 73.3119 161.756 70.0265 161.881C66.7403 161.982 63.4545 162.084 60.1656 162.109C56.8771 162.145 53.5884 162.165 50.2957 162.079Z" fill="#542A3C"/>
<path d="M143.701 126.2C142.33 126.363 139.207 129.447 138.636 130.292C138.038 131.178 137.74 131.983 137.285 132.53C136.237 133.79 134.608 131.967 133.891 131.399C131.645 129.62 129.03 126.574 129.347 125.775C129.784 124.677 130.083 124.788 130.522 124.543L130.523 124.534L133.614 122.347C135.269 121.17 137.699 118.299 138.758 116.963C138.758 116.963 139.562 117.482 140.144 120.651C140.666 123.492 143.735 126.223 143.701 126.2Z" fill="#FF99C3"/>
<path d="M131.588 155.133C131.203 156.778 130.818 158.423 130.434 160.068C130.11 161.714 129.786 163.361 129.463 165.007C129.463 165.007 128.02 171.981 125.324 175.526C124.523 175.434 123.728 175.668 123.104 176.174L121.028 177.229C120.374 177.082 124.347 179.395 124.363 182.316L119.616 189.218C118.675 189.919 114.868 191.112 113.747 191.468C113.747 191.468 110.149 192.842 108.341 192.524C102.503 193.235 98.4851 188.778 98.4851 188.778C97.7206 188.348 97.1056 187.726 96.6865 186.99C96.2671 186.253 96.0421 185.411 96.0674 184.541C96.1186 182.32 96.3262 180.104 96.6852 177.923C97.1496 175.102 97.8626 172.321 98.8376 169.623L108.109 143.865C109.274 140.609 110.834 137.525 112.73 134.663C114.636 131.802 116.877 129.174 119.424 126.831C120.778 125.59 122.379 124.703 124.095 124.189C125.8 123.682 127.629 123.55 129.448 123.848C129.629 123.878 129.8 123.916 129.979 123.965C131.692 124.363 133.196 125.376 134.237 126.814L137.571 131.456C138.011 132.069 137.94 132.912 137.411 133.444L136.222 134.634C135.981 136.782 135.654 139.036 135.218 141.381C134.267 146.508 132.978 151.108 131.588 155.133Z" fill="#FF006A"/>
<path d="M106.446 175.998C107.583 175.649 108.708 175.273 109.801 174.816C110.905 174.392 111.986 173.913 113.044 173.391C115.159 172.349 117.201 171.163 119.073 169.746C120.998 168.392 122.654 166.708 124.155 164.912L125.227 163.514C125.559 163.03 125.838 162.511 126.15 162.011L126.62 161.259L126.996 160.458C127.243 159.921 127.499 159.386 127.762 158.849C127.048 161.109 126.069 163.34 124.599 165.253C123.153 167.168 121.44 168.898 119.508 170.329C117.555 171.729 115.475 172.948 113.276 173.896C111.077 174.835 108.796 175.597 106.446 175.998Z" fill="#952755"/>
<path d="M101.407 179.743C102.998 179.832 104.579 179.857 106.158 179.813C107.735 179.763 109.309 179.668 110.872 179.482C112.437 179.322 113.991 179.061 115.533 178.74C117.085 178.444 118.594 177.98 120.132 177.55C118.707 178.26 117.215 178.868 115.667 179.283C114.129 179.739 112.544 180.025 110.952 180.204C109.358 180.376 107.753 180.453 106.153 180.37C104.555 180.297 102.957 180.129 101.407 179.743Z" fill="#952755"/>
<path d="M130.487 126.307C131.294 126.646 132.028 127.156 132.68 127.746C133.335 128.336 133.917 129.009 134.41 129.742C134.883 130.486 135.319 131.26 135.605 132.094C135.778 132.499 135.872 132.931 135.994 133.351C136.089 133.778 136.161 134.21 136.222 134.64C135.918 133.821 135.62 133.015 135.249 132.244L134.973 131.666L134.663 131.106C134.466 130.729 134.229 130.374 133.998 130.018C133.532 129.306 132.99 128.648 132.411 128.021C131.823 127.404 131.198 126.812 130.487 126.307Z" fill="#952755"/>
<path d="M109.908 139.588C109.792 140.845 109.708 142.099 109.656 143.353C109.613 144.608 109.572 145.86 109.588 147.114C109.591 148.367 109.628 149.62 109.692 150.873C109.743 152.128 109.868 153.377 109.956 154.638C109.814 154.024 109.681 153.405 109.571 152.783C109.475 152.158 109.379 151.533 109.312 150.904C109.158 149.648 109.107 148.381 109.093 147.116C109.089 145.85 109.144 144.584 109.278 143.326C109.345 142.697 109.427 142.07 109.52 141.445C109.636 140.823 109.742 140.199 109.908 139.588Z" fill="#952755"/>
<path d="M145.83 125.467C145.628 125.418 145.436 125.36 145.256 125.284C145.189 125.261 145.122 125.238 145.056 125.206C143.717 125.546 142.797 126.103 142.253 126.495C140.485 127.769 135.806 120.171 136.626 118.31L137.491 116.324C137.782 116.542 138.144 116.676 138.532 116.695C139.065 116.721 139.559 116.532 139.916 116.191L139.341 117.414C139.07 117.983 139.308 118.674 139.877 118.955C140.019 119.02 140.173 119.056 140.328 119.064C140.803 119.087 141.262 118.828 141.46 118.363L141.482 118.305L141.856 118.421C141.697 118.869 142.09 119.189 142.239 119.711C142.553 120.813 142.628 121.855 143.218 122.894C143.44 123.285 143.563 123.621 143.862 124.002C144.511 124.829 145.315 125.253 145.83 125.467Z" fill="#FF99C3"/>
<path d="M149.288 109.137C147.113 109.33 144.352 108.991 140.878 107.734L127.464 115.819C127.464 115.819 126.915 121.838 133.121 123.21C133.125 123.207 133.129 123.202 133.133 123.199C134.646 123.813 136.357 122.526 136.648 121.05C136.794 120.311 136.848 119.657 137.179 118.951C137.45 118.373 137.397 117.901 137.388 117.3C137.383 116.969 137.449 116.662 137.467 116.347L137.483 116.311C137.478 116.307 137.474 116.303 137.469 116.299C137.471 116.257 137.475 116.215 137.474 116.173C137.421 116.164 137.366 116.171 137.312 116.169C136.917 115.801 136.68 115.269 136.709 114.681C136.761 113.626 137.656 112.816 138.712 112.868C139.768 112.92 140.578 113.814 140.526 114.869L139.908 116.177L139.333 117.401C139.062 117.97 139.3 118.661 139.869 118.942C140.011 119.007 140.165 119.043 140.32 119.051C140.794 119.074 141.254 118.815 141.452 118.349L141.474 118.292L142.702 114.277C143.072 113.082 144.094 112.239 145.329 112.028C146.308 111.853 147.624 111.374 149.213 110.259C149.227 109.58 149.288 109.146 149.288 109.146L149.288 109.137Z" fill="#B81D5E"/>
<path d="M143.222 122.105C143.188 122.103 143.155 122.087 143.133 122.058L138.682 116.37C138.641 116.318 138.65 116.242 138.702 116.2C138.754 116.159 138.831 116.168 138.873 116.221L143.324 121.909C143.365 121.962 143.355 122.038 143.303 122.079C143.28 122.098 143.25 122.106 143.222 122.105Z" fill="#3F3F3F"/>
<path d="M151.246 116.612C151.557 116.973 151.646 117.48 151.191 117.622L150.952 117.674C150.014 117.966 149.357 118.813 149.309 119.793L149.272 120.551L149.104 123.949C149.053 124.972 148.183 125.769 147.159 125.717C146.728 125.695 146.298 125.625 145.87 125.518L145.86 125.518C145.112 125.131 144.454 124.682 143.893 124.052C143.589 123.707 143.481 123.353 143.248 122.944C142.659 121.905 142.584 120.863 142.269 119.761C142.12 119.239 141.728 118.919 141.886 118.471C141.919 118.395 141.951 118.329 142.004 118.254C142.275 117.869 142.74 117.494 143.189 117.467C144.415 117.401 145.648 118.015 146.899 117.465C147.355 117.274 147.751 116.925 148.172 116.664C148.913 116.206 149.912 116.041 150.805 116.047C150.941 116.24 151.088 116.427 151.246 116.612Z" fill="#E1377E"/>
<path d="M142.938 123.559C143.402 124.093 143.931 124.58 144.557 124.908C144.746 125.007 144.94 125.096 145.138 125.174C145.138 125.174 143.806 125.39 142.335 126.462C139.12 124.073 140.154 120.361 140.154 120.361L142.938 123.559Z" fill="#F664A1"/>
<path d="M147.541 103.766L156.949 104.229C156.949 104.229 155.373 108.616 149.414 109.109C147.238 109.303 144.477 108.964 141.004 107.706L147.541 103.766Z" fill="#FF006A"/>
<path d="M147.54 103.766L141.003 107.705L127.589 115.789L127.189 116.032C123.49 109.717 125.027 105.532 126.951 103.143C128.08 101.733 130.574 100.205 132.258 99.5408C144.313 94.7664 147.54 103.766 147.54 103.766Z" fill="#FF006A"/>
<path d="M133.567 100.235C134.497 100.355 135.398 100.668 136.248 101.078C137.101 101.488 137.886 102.045 138.576 102.701C139.267 103.356 139.85 104.135 140.248 104.998C140.688 105.844 140.893 106.783 141.003 107.705C140.695 106.822 140.408 105.947 139.919 105.174C139.462 104.389 138.905 103.665 138.24 103.05C136.937 101.787 135.317 100.869 133.567 100.235Z" fill="#A22459"/>
<path d="M144.183 119.788C144.629 119.884 145.081 119.912 145.528 119.919C145.975 119.918 146.423 119.899 146.864 119.821C147.751 119.696 148.603 119.405 149.448 119.063C149.066 119.311 148.664 119.538 148.233 119.699C147.807 119.877 147.353 119.974 146.9 120.061C145.99 120.178 145.03 120.152 144.183 119.788Z" fill="#3F3F3F"/>
<path d="M143.694 120.976C144.052 121.291 144.441 121.563 144.84 121.81C145.241 122.056 145.655 122.278 146.093 122.443C146.954 122.818 147.886 122.977 148.837 123.047C148.363 123.098 147.877 123.119 147.399 123.042C146.919 122.983 146.452 122.841 146.001 122.667C145.113 122.292 144.284 121.734 143.694 120.976Z" fill="#3F3F3F"/>
<path d="M149.238 110.312C149.218 111.689 149.421 114.076 150.791 116.036C149.898 116.031 148.898 116.195 148.157 116.654C147.736 116.915 147.341 117.264 146.884 117.455C145.633 118.005 144.401 117.391 143.174 117.457C142.726 117.484 142.261 117.859 141.989 118.243C141.937 118.318 141.904 118.385 141.872 118.461L141.498 118.345L142.726 114.33C143.096 113.135 144.119 112.292 145.353 112.081C146.333 111.906 147.648 111.427 149.238 110.312Z" fill="#FF99C3"/>
<path d="M143.353 117.917C143.322 117.916 143.293 117.903 143.271 117.879L140.121 114.569C140.076 114.521 140.077 114.444 140.125 114.398C140.177 114.352 140.253 114.353 140.297 114.402L143.446 117.713C143.492 117.761 143.491 117.838 143.443 117.884C143.417 117.908 143.385 117.919 143.353 117.917Z" fill="#3F3F3F"/>
<path d="M148.794 112.094C148.542 112.311 148.318 112.456 148.109 112.604C147.902 112.752 147.691 112.849 147.519 113.005C147.303 113.094 147.143 113.248 146.938 113.377C146.725 113.504 146.538 113.673 146.245 113.849L146.192 113.829C146.387 113.31 146.739 112.839 147.211 112.533C147.688 112.236 148.236 112.072 148.792 112.037L148.794 112.094Z" fill="#B81D5E"/>
<path d="M148.589 113.966C148.604 113.661 148.368 113.402 148.063 113.387C147.758 113.372 147.498 113.607 147.483 113.912C147.468 114.217 147.703 114.476 148.009 114.491C148.314 114.506 148.574 114.271 148.589 113.966Z" fill="#23000E"/>
<path d="M140.55 114.899L139.932 116.208C139.575 116.549 139.08 116.739 138.547 116.712C138.159 116.693 137.797 116.559 137.507 116.341C137.01 115.977 136.699 115.379 136.732 114.711C136.784 113.656 137.679 112.846 138.735 112.898C139.791 112.95 140.602 113.844 140.55 114.899Z" fill="#F664A1"/>
<path d="M159.067 181.429C157.281 178.749 154.287 176.862 150.716 176.696L126.915 175.508C123.794 175.363 121.896 175.949 119.451 178.005L113.487 185.208C110.764 188.253 108.723 188.999 107.28 189.297L100.379 190.919C101.826 192.217 102.383 192.935 104.877 193.091C107.479 193.264 109.931 192.993 109.931 192.993L134.228 192.282L143.278 192.019L132.324 229.34L133.189 229.576L142.377 232.102L142.396 232.111L147.081 232.027L149.781 223.593L149.781 223.584L150.936 219.979L159.962 191.744L160.341 190.549C161.383 187.294 160.775 183.994 159.067 181.429Z" fill="#833455"/>
<path d="M161.642 239.158C161.657 239.244 161.662 239.331 161.667 239.409C161.675 239.544 161.673 239.68 161.662 239.817C161.574 240.764 160.973 241.606 160.063 241.981L157.095 243.199C154.335 244.336 151.378 244.94 148.388 244.993C148.029 244.995 147.679 244.997 147.318 244.98L131.217 244.528C130.263 244.498 129.424 243.975 128.959 243.197C128.722 242.803 128.587 242.345 128.587 241.859C128.58 236.577 130.441 231.833 130.441 231.833L131.394 232.64L132.008 233.166C133.924 234.79 136.666 234.975 138.771 233.625L141.886 231.622L141.906 231.621L141.916 231.62L146.259 232.574L159.895 237.097C160.808 237.411 161.487 238.196 161.642 239.158Z" fill="#B04974"/>
<path d="M132.589 229.57L132.059 230.932L131.394 232.643L132.009 233.169C133.924 234.792 136.666 234.977 138.772 233.628L141.887 231.625L141.896 231.614L132.589 229.57Z" fill="#FF99C3"/>
<path d="M160.781 239.994C160.196 240.318 159.553 240.516 158.93 240.752L157.043 241.419L153.242 242.669C151.957 243.09 150.601 243.287 149.248 243.304C147.896 243.284 146.577 243.224 145.241 243.187C142.577 243.067 139.913 242.969 137.251 242.829L133.257 242.609C132.922 242.583 132.596 242.576 132.252 242.532C131.914 242.486 131.583 242.393 131.271 242.261C130.959 242.129 130.666 241.955 130.401 241.747C130.135 241.538 129.915 241.285 129.682 241.047C130.165 241.508 130.693 241.926 131.319 242.139C131.627 242.25 131.949 242.32 132.273 242.346C132.593 242.369 132.935 242.359 133.266 242.366L137.265 242.448C139.93 242.509 142.594 242.611 145.259 242.693C146.587 242.745 147.932 242.82 149.246 242.853C150.558 242.859 151.867 242.658 153.133 242.306L156.97 241.189L158.89 240.628L159.845 240.335C160.159 240.229 160.487 240.149 160.781 239.994Z" fill="#743D54"/>
<path d="M125.136 168.806C124.887 168.422 124.679 167.948 124.679 167.948C124.317 167.087 124.206 166.173 124.133 164.902C123.95 161.718 123.366 158.567 123.164 155.384C123.037 153.383 122.812 150.498 122.385 146.967C126.12 147.483 129.855 147.998 133.59 148.514C133.483 150.166 133.415 151.691 133.375 153.076C133.362 153.503 133.357 153.962 133.344 154.862C133.262 160.541 133.313 161.19 133.749 162.051C134.373 163.283 134.897 163.197 135.145 164.283C135.501 165.844 134.71 167.294 134.2 168.232C133.513 169.493 132.988 170.467 131.864 171.014C129.408 172.208 126.224 170.483 125.136 168.806Z" fill="#FF99C3"/>
<path d="M126.742 170.396C125.68 169.573 125.085 168.689 124.771 168.134C124.225 167.17 123.999 166.316 123.882 165.657C123.724 164.769 123.691 163.953 123.607 163.1C123.457 161.412 123.324 159.722 123.233 158.028C123.126 156.335 123.043 154.64 123.015 152.941C123.496 155.052 123.674 156.768 123.744 157.979C123.797 158.873 123.804 159.731 123.935 161.668C124.04 163.222 124.118 163.899 124.158 164.225C124.366 165.925 124.47 166.775 124.812 167.633C125.074 168.293 125.604 169.332 126.742 170.396Z" fill="#952755"/>
<path d="M121.155 127.495C122.058 126.638 124.106 125.86 124.788 125.759C125.814 125.608 127.399 125.241 129.228 125.885C131.632 126.732 132.376 127.883 133.403 129.65C134.74 131.951 135.286 134.22 135.498 135.999C134.849 141.238 134.2 146.477 133.55 151.716L122.815 150.867C120.647 150.679 118.479 150.49 116.311 150.301C117.189 144.788 117.876 140.422 118.289 137.821C118.498 136.499 118.656 135.508 118.807 134.087C119.002 132.257 118.893 132.038 119.115 130.995C119.443 129.461 120.148 128.45 121.155 127.495Z" fill="#FF006A"/>
<path d="M118.991 132.78C118.896 134.239 118.783 135.696 118.639 137.149C118.485 138.601 118.372 140.058 118.185 141.506L117.668 145.854L117.072 150.192L116.78 149.829C118.339 149.977 119.893 150.178 121.448 150.369C123.003 150.553 124.554 150.782 126.104 151.024C124.536 150.974 122.969 150.913 121.406 150.806C119.843 150.707 118.279 150.617 116.72 150.474L116.389 150.443L116.429 150.11L116.953 145.763L117.556 141.425C117.744 139.977 118.004 138.539 118.224 137.096C118.452 135.654 118.714 134.216 118.991 132.78Z" fill="#952755"/>
<path d="M131.116 126.885C131.862 127.344 132.508 127.961 133.061 128.644C133.617 129.327 134.089 130.082 134.462 130.883C134.815 131.69 135.126 132.522 135.28 133.391C135.388 133.817 135.415 134.259 135.47 134.692C135.498 135.129 135.503 135.567 135.497 136.002C135.322 135.145 135.153 134.304 134.905 133.484L134.722 132.87L134.502 132.269C134.365 131.866 134.186 131.479 134.013 131.092C133.662 130.316 133.228 129.583 132.753 128.875C132.267 128.174 131.74 127.493 131.116 126.885Z" fill="#952755"/>
<path d="M160.034 169.592C160.019 169.88 159.942 170.532 159.448 170.981C159.245 171.166 159.037 171.263 158.796 171.361C158.498 171.482 158.04 171.629 157.439 171.677L149.199 172.791C148.718 172.861 148.225 172.912 147.743 172.962C144.771 173.273 142.285 173.181 139.216 172.939C135.239 172.626 131.965 171.602 128.806 171.095C128.365 170.672 126.933 170.124 126.487 168.374C126.048 166.652 126.402 165.236 126.584 164.651C126.709 164.252 127.16 162.991 128.451 162.166C130.438 160.896 132.629 161.799 132.827 161.884C134.988 162.549 137.149 163.213 139.309 163.878C142.606 164.827 145.47 165.555 147.774 166.101C151.144 166.901 153.168 167.279 155.505 167.518C156.486 167.619 157.306 167.672 157.883 167.703C158.822 167.55 159.667 167.932 159.969 168.582C160.153 168.981 160.088 169.382 160.034 169.592Z" fill="#FF99C3"/>
<path d="M172.023 163.503C172.598 163.711 172.923 164.301 172.809 164.897L171.926 169.352C171.818 169.914 171.246 170.253 170.7 170.085C170.427 169.99 170.217 169.794 170.111 169.545C170.035 169.366 170.012 169.165 170.063 168.964L170.154 168.536C170.416 168.235 170.52 167.811 170.41 167.405L170.566 166.684C170.637 166.38 170.389 166.096 170.074 166.124L169.283 166.198C168.794 166.237 168.349 166.479 168.039 166.864L164.627 171.099C164.496 171.261 164.344 171.399 164.181 171.511C163.812 171.783 163.355 171.925 162.891 171.923L159.915 171.893C159.487 171.92 159.101 171.937 158.766 171.948C158.376 171.961 158.213 171.961 158.015 171.873C157.73 171.746 157.572 171.525 157.459 171.363C157.206 170.999 157.139 170.647 157.099 170.418C156.925 169.447 157.279 168.678 157.379 168.477C157.471 168.292 157.566 168.147 157.637 168.048C158.233 167.89 158.98 167.636 159.788 167.213C160.605 166.786 161.245 166.312 161.716 165.909L164.931 163.065L165.261 162.777C166.128 162.018 167.337 161.788 168.422 162.18L172.023 163.503Z" fill="#FF99C3"/>
<mask id="mask3_7016_4542" style="mask-type:alpha" maskUnits="userSpaceOnUse" x="0" y="22" width="214" height="272">
<path d="M213.224 22.9185V293.896L0 293.222V22.2444L213.224 22.9185Z" fill="black"/>
</mask>
<g mask="url(#mask3_7016_4542)">
<path d="M98.5001 103.025H70.4449C70.3036 103.025 70.1892 102.911 70.1892 102.77C70.1892 102.628 70.3036 102.514 70.4449 102.514H98.5001C98.6415 102.514 98.7558 102.628 98.7558 102.77C98.7558 102.911 98.6415 103.025 98.5001 103.025Z" fill="#612D43"/>
<path d="M101.407 106.278H84.809C84.6676 106.278 84.5532 106.163 84.5532 106.022C84.5532 105.881 84.6676 105.766 84.809 105.766H101.407C101.549 105.766 101.663 105.881 101.663 106.022C101.663 106.163 101.549 106.278 101.407 106.278Z" fill="#612D43"/>
<path d="M61.8911 161.656H39.9851C39.8437 161.656 39.729 161.541 39.729 161.4C39.729 161.259 39.8437 161.144 39.9851 161.144H61.8911C62.0325 161.144 62.1472 161.259 62.1472 161.4C62.1472 161.541 62.0325 161.656 61.8911 161.656Z" fill="#612D43"/>
<path d="M47.494 157.615H30.8956C30.7543 157.615 30.6399 157.501 30.6399 157.36C30.6399 157.218 30.7543 157.104 30.8956 157.104H47.494C47.6354 157.104 47.7498 157.218 47.7498 157.36C47.7498 157.501 47.6354 157.615 47.494 157.615Z" fill="#612D43"/>
<path d="M151.089 134.365H140.381C140.239 134.365 140.125 134.251 140.125 134.109C140.125 133.968 140.239 133.854 140.381 133.854H151.089C151.23 133.854 151.345 133.968 151.345 134.109C151.345 134.251 151.23 134.365 151.089 134.365Z" fill="#612D43"/>
<path d="M148.154 130.583H129.583C129.441 130.583 129.327 130.469 129.327 130.328C129.327 130.186 129.441 130.072 129.583 130.072H148.154C148.295 130.072 148.41 130.186 148.41 130.328C148.41 130.469 148.295 130.583 148.154 130.583Z" fill="#612D43"/>
<path d="M94.0859 111.577H71.6542C71.5128 111.577 71.3984 111.462 71.3984 111.321C71.3984 111.18 71.5128 111.065 71.6542 111.065H94.0859C94.2272 111.065 94.3416 111.18 94.3416 111.321C94.3416 111.462 94.2272 111.577 94.0859 111.577Z" fill="#612D43"/>
<path d="M50.4111 165.768H27.9794C27.838 165.768 27.7236 165.653 27.7236 165.512C27.7236 165.371 27.838 165.256 27.9794 165.256H50.4111C50.5524 165.256 50.6668 165.371 50.6668 165.512C50.6668 165.653 50.5524 165.768 50.4111 165.768Z" fill="#612D43"/>
</g>
</svg>
